<?xml version="1.0" encoding="UTF-8"?>
<svg version="1.1" xmlns="http://www.w3.org/2000/svg" width="577" height="433">
<path d="M0 0 C0.98484375 0.07863281 1.9696875 0.15726562 2.984375 0.23828125 C8.65407497 0.72965525 13.89563107 1.58832782 19.375 3.125 C20.468125 3.393125 21.56125 3.66125 22.6875 3.9375 C29.66621128 6.1848816 36.11137202 9.33963551 42.375 13.125 C44.02869357 13.82322617 45.69227014 14.49998605 47.375 15.125 C47.375 15.785 47.375 16.445 47.375 17.125 C48.365 17.125 49.355 17.125 50.375 17.125 C50.375 17.785 50.375 18.445 50.375 19.125 C52.355 19.785 54.335 20.445 56.375 21.125 C56.375 21.785 56.375 22.445 56.375 23.125 C56.931875 23.3725 57.48875 23.62 58.0625 23.875 C60.77471127 25.34106015 63.01087365 27.15489471 65.375 29.125 C64.81290555 32.56413052 63.84612228 33.92701056 61.125 36.0625 C56.82883161 39.56243352 53.04263846 43.30011705 49.5 47.5625 C46.92797236 50.61719606 44.12910101 53.10203561 41.0546875 55.63671875 C38.50260416 57.89798329 36.47893205 60.44726829 34.375 63.125 C30.72118215 62.50056 28.40817065 60.91964235 25.4375 58.75 C10.88179052 48.17630069 -3.9333676 45.50603449 -21.625 47.125 C-25.48677287 47.76719214 -28.97760467 48.72265047 -32.625 50.125 C-33.34558594 50.36476562 -34.06617188 50.60453125 -34.80859375 50.8515625 C-38.25458174 52.03713871 -41.35312958 53.47358806 -44.5 55.3125 C-47.625 57.125 -47.625 57.125 -49.625 57.125 C-49.625 57.785 -49.625 58.445 -49.625 59.125 C-53.97794118 63.125 -53.97794118 63.125 -57.625 63.125 C-57.8725 63.681875 -58.12 64.23875 -58.375 64.8125 C-60.15546414 68.10635866 -62.3809655 70.94678743 -65.1015625 73.5234375 C-70.33604123 79.02635103 -73.08788884 87.09300685 -75.625 94.125 C-75.87725342 94.76252197 -76.12950684 95.40004395 -76.3894043 96.05688477 C-81.8472604 110.72253036 -79.78003098 128.00759898 -73.59277344 142.12207031 C-71.45559633 146.54522899 -68.90775718 150.64945003 -66.1640625 154.71875 C-64.625 157.125 -64.625 157.125 -64.625 159.125 C-63.635 159.455 -62.645 159.785 -61.625 160.125 C-60.00495767 161.84629497 -58.58624214 163.67425478 -57.125 165.53125 C-55.60983163 167.39344491 -55.60983163 167.39344491 -52.625 168.125 C-50.95833333 169.79166667 -49.29166667 171.45833333 -47.625 173.125 C-46.635 173.455 -45.645 173.785 -44.625 174.125 C-44.625 174.785 -44.625 175.445 -44.625 176.125 C-43.6659375 176.2796875 -43.6659375 176.2796875 -42.6875 176.4375 C-37.66843773 177.56422826 -32.77339838 179.18180071 -28.0625 181.25 C-14.02593337 186.28876751 5.27572231 183.26706363 18.375 177.125 C24.8052233 173.79492135 30.49208719 170.49620409 35.375 165.125 C36.035 165.125 36.695 165.125 37.375 165.125 C37.64570313 164.54621094 37.91640625 163.96742188 38.1953125 163.37109375 C39.37720886 161.12079439 40.73859608 159.22750374 42.25 157.1875 C44.85283713 153.36353748 46.27617468 149.74283654 47.5703125 145.30859375 C48.08489014 143.56727173 48.08489014 143.56727173 48.60986328 141.79077148 C48.8623584 140.91106689 49.11485352 140.0313623 49.375 139.125 C48.61300797 139.12722061 47.85101593 139.12944122 47.06593323 139.13172913 C39.89948288 139.15173157 32.73304599 139.16697388 25.56657505 139.17681217 C21.88185502 139.18204008 18.19715797 139.18913605 14.51245117 139.20043945 C10.95929169 139.21127162 7.40615437 139.21727753 3.85297966 139.21987724 C2.49454334 139.2217309 1.13610829 139.22535038 -0.22231865 139.23073006 C-2.11882223 139.23794475 -4.01534793 139.23840809 -5.91186523 139.23852539 C-6.99330307 139.240746 -8.07474091 139.24296661 -9.18894958 139.24525452 C-11.625 139.125 -11.625 139.125 -12.625 138.125 C-12.7178726 136.71274954 -12.74246772 135.29591066 -12.73852539 133.88061523 C-12.73841209 132.52932777 -12.73841209 132.52932777 -12.73829651 131.15074158 C-12.73313522 130.17158279 -12.72797394 129.19242401 -12.72265625 128.18359375 C-12.7212413 127.18618668 -12.71982635 126.1887796 -12.71836853 125.16114807 C-12.71275114 121.96156876 -12.70019571 118.76205831 -12.6875 115.5625 C-12.68248724 113.39908955 -12.67792395 111.23567801 -12.67382812 109.07226562 C-12.66277607 103.75648675 -12.64602104 98.44074829 -12.625 93.125 C-2.85628372 91.85823066 6.87551047 91.97971444 16.70703125 91.9921875 C18.58973707 91.99151247 20.4724428 91.99054079 22.35514832 91.98928833 C26.28958979 91.98781963 30.22400846 91.98993848 34.15844727 91.99462891 C39.16778038 92.00031383 44.17705975 91.99704973 49.18639088 91.99105644 C53.07204075 91.98741831 56.9576782 91.98860446 60.84332848 91.99118423 C62.68865656 91.99184515 64.53398581 91.99105476 66.37931252 91.98870468 C76.43240146 91.97871212 86.3619432 92.1280219 96.375 93.125 C100.51734455 108.03744038 101.43389398 127.44820877 96.375 142.125 C96.04228433 144.67329953 95.87849968 147.19383011 95.71875 149.7578125 C95.35359857 152.27237804 94.55518376 153.8952635 93.375 156.125 C93.08625 157.383125 92.7975 158.64125 92.5 159.9375 C91.4955797 164.22621526 89.6468085 167.36231717 87.375 171.125 C87.065625 171.90875 86.75625 172.6925 86.4375 173.5 C85.29782106 176.31567739 83.92295882 178.82531949 82.375 181.4375 C81.859375 182.32050781 81.34375 183.20351563 80.8125 184.11328125 C80.338125 184.77714844 79.86375 185.44101562 79.375 186.125 C78.715 186.125 78.055 186.125 77.375 186.125 C77.313125 186.66125 77.25125 187.1975 77.1875 187.75 C75.97464736 191.29526157 73.92889074 193.3842392 71.375 196.125 C70.715 196.125 70.055 196.125 69.375 196.125 C69.375 197.115 69.375 198.105 69.375 199.125 C65.03214286 203.125 65.03214286 203.125 62.375 203.125 C62.375 203.785 62.375 204.445 62.375 205.125 C61.0625 206.75 61.0625 206.75 59.375 208.125 C58.385 208.125 57.395 208.125 56.375 208.125 C56.375 208.785 56.375 209.445 56.375 210.125 C49.625 214.125 49.625 214.125 47.375 214.125 C47.045 215.115 46.715 216.105 46.375 217.125 C43.11297837 218.42980865 39.79543815 219.33566812 36.375 220.125 C36.375 220.785 36.375 221.445 36.375 222.125 C10.56229126 231.51143954 -18.11201444 234.42327404 -44.625 226.125 C-45.81416016 225.76921875 -45.81416016 225.76921875 -47.02734375 225.40625 C-52.40637885 223.71438255 -57.53402318 221.54165915 -62.625 219.125 C-63.99398437 218.48884766 -63.99398437 218.48884766 -65.390625 217.83984375 C-69.37028893 215.72985285 -72.99695584 213.26157702 -76.6875 210.6875 C-77.38166016 210.20990234 -78.07582031 209.73230469 -78.79101562 209.24023438 C-86.46630032 203.92657574 -86.46630032 203.92657574 -89.625 201.125 C-89.625 200.465 -89.625 199.805 -89.625 199.125 C-90.615 198.795 -91.605 198.465 -92.625 198.125 C-92.625 197.465 -92.625 196.805 -92.625 196.125 C-93.20507812 195.89039063 -93.78515625 195.65578125 -94.3828125 195.4140625 C-98.8375806 192.85295889 -101.54658971 188.14969205 -104.625 184.125 C-105.40230469 183.196875 -105.40230469 183.196875 -106.1953125 182.25 C-113.55790591 173.2378638 -118.18090176 161.93936123 -122.0625 151.0625 C-122.4327832 150.02814819 -122.4327832 150.02814819 -122.81054688 148.97290039 C-124.26825865 144.70307158 -125.09921037 140.6245459 -125.625 136.125 C-125.80160156 134.90683594 -125.97820312 133.68867188 -126.16015625 132.43359375 C-127.93234533 119.4244132 -128.10488458 107.64492079 -125.8125 94.6875 C-125.64733887 93.75147949 -125.48217773 92.81545898 -125.31201172 91.85107422 C-124.30148777 86.55128965 -122.90126217 82.01063588 -120.625 77.125 C-120.1864748 75.77775313 -119.76644556 74.42417134 -119.375 73.0625 C-116.25541323 63.5077447 -111.1702168 52.78472741 -104.625 45.125 C-103.965 45.125 -103.305 45.125 -102.625 45.125 C-102.521875 44.526875 -102.41875 43.92875 -102.3125 43.3125 C-101.50746919 40.75103834 -100.5786379 39.93392398 -98.625 38.125 C-97.985625 37.279375 -97.34625 36.43375 -96.6875 35.5625 C-94.65199651 33.15690497 -93.35034204 32.48767102 -90.625 31.125 C-89.35695434 29.0914052 -89.35695434 29.0914052 -88.625 27.125 C-87.635 27.125 -86.645 27.125 -85.625 27.125 C-85.625 26.465 -85.625 25.805 -85.625 25.125 C-83.975 24.465 -82.325 23.805 -80.625 23.125 C-80.625 22.465 -80.625 21.805 -80.625 21.125 C-73.875 17.125 -73.875 17.125 -71.625 17.125 C-71.625 16.465 -71.625 15.805 -71.625 15.125 C-70.61179688 14.65449219 -69.59859375 14.18398437 -68.5546875 13.69921875 C-67.20310425 13.0703571 -65.85154291 12.44144834 -64.5 11.8125 C-63.83484375 11.50376953 -63.1696875 11.19503906 -62.484375 10.87695312 C-59.42904182 9.4541264 -56.40752295 8.01229291 -53.4140625 6.4609375 C-50.90922068 5.26113932 -48.83588805 4.56833599 -46.125 4.0625 C-43.53309174 3.54669736 -41.29660431 3.0009394 -38.8125 2.0625 C-34.64089409 0.83555708 -30.56294973 0.63489992 -26.234375 0.37109375 C-17.36731886 -0.46517053 -9.20128876 -0.81330653 0 0 Z " fill="#35A854" transform="translate(300.625,100.875)"/>
<path d="M0 0 C0.98484375 0.07863281 1.9696875 0.15726562 2.984375 0.23828125 C8.65407497 0.72965525 13.89563107 1.58832782 19.375 3.125 C20.468125 3.393125 21.56125 3.66125 22.6875 3.9375 C29.66621128 6.1848816 36.11137202 9.33963551 42.375 13.125 C44.02869357 13.82322617 45.69227014 14.49998605 47.375 15.125 C47.375 15.785 47.375 16.445 47.375 17.125 C48.365 17.125 49.355 17.125 50.375 17.125 C50.375 17.785 50.375 18.445 50.375 19.125 C52.355 19.785 54.335 20.445 56.375 21.125 C56.375 21.785 56.375 22.445 56.375 23.125 C56.931875 23.3725 57.48875 23.62 58.0625 23.875 C60.77471127 25.34106015 63.01087365 27.15489471 65.375 29.125 C64.81290555 32.56413052 63.84612228 33.92701056 61.125 36.0625 C56.82883161 39.56243352 53.04263846 43.30011705 49.5 47.5625 C46.92797236 50.61719606 44.12910101 53.10203561 41.0546875 55.63671875 C38.50260416 57.89798329 36.47893205 60.44726829 34.375 63.125 C30.72118215 62.50056 28.40817065 60.91964235 25.4375 58.75 C10.88179052 48.17630069 -3.9333676 45.50603449 -21.625 47.125 C-25.48677287 47.76719214 -28.97760467 48.72265047 -32.625 50.125 C-33.34558594 50.36476562 -34.06617188 50.60453125 -34.80859375 50.8515625 C-38.25458174 52.03713871 -41.35312958 53.47358806 -44.5 55.3125 C-47.625 57.125 -47.625 57.125 -49.625 57.125 C-49.625 57.785 -49.625 58.445 -49.625 59.125 C-53.97794118 63.125 -53.97794118 63.125 -57.625 63.125 C-57.8725 63.681875 -58.12 64.23875 -58.375 64.8125 C-60.15546414 68.10635866 -62.3809655 70.94678743 -65.1015625 73.5234375 C-70.33604123 79.02635103 -73.08788884 87.09300685 -75.625 94.125 C-75.87942871 94.75817139 -76.13385742 95.39134277 -76.39599609 96.04370117 C-78.72591337 102.23630327 -79.09148748 107.85856977 -79 114.4375 C-78.99419922 115.44627197 -78.98839844 116.45504395 -78.98242188 117.49438477 C-78.85626026 124.74108437 -78.10307565 131.26604061 -75.625 138.125 C-76.20378906 138.38410156 -76.78257812 138.64320313 -77.37890625 138.91015625 C-79.79323238 140.21599178 -81.54629473 141.70599416 -83.5625 143.5625 C-86.45214054 146.15302803 -89.26179694 148.17788244 -92.625 150.125 C-94.04903416 151.32248327 -95.47220394 152.52110546 -96.8828125 153.734375 C-98.92335023 155.36314503 -101.06039041 156.76604853 -103.25 158.1875 C-105.78552071 159.83537611 -107.78815262 161.28815262 -109.9375 163.4375 C-111.8559506 165.3559506 -113.02710528 165.58399512 -115.625 166.125 C-128.71128835 141.30617728 -130.5415642 110.98477996 -123.625 84.125 C-122.73912316 81.71622087 -121.71099323 79.4559123 -120.625 77.125 C-120.1864748 75.77775313 -119.76644556 74.42417134 -119.375 73.0625 C-116.25541323 63.5077447 -111.1702168 52.78472741 -104.625 45.125 C-103.965 45.125 -103.305 45.125 -102.625 45.125 C-102.521875 44.526875 -102.41875 43.92875 -102.3125 43.3125 C-101.50746919 40.75103834 -100.5786379 39.93392398 -98.625 38.125 C-97.985625 37.279375 -97.34625 36.43375 -96.6875 35.5625 C-94.65199651 33.15690497 -93.35034204 32.48767102 -90.625 31.125 C-89.35695434 29.0914052 -89.35695434 29.0914052 -88.625 27.125 C-87.635 27.125 -86.645 27.125 -85.625 27.125 C-85.625 26.465 -85.625 25.805 -85.625 25.125 C-83.975 24.465 -82.325 23.805 -80.625 23.125 C-80.625 22.465 -80.625 21.805 -80.625 21.125 C-73.875 17.125 -73.875 17.125 -71.625 17.125 C-71.625 16.465 -71.625 15.805 -71.625 15.125 C-70.61179688 14.65449219 -69.59859375 14.18398437 -68.5546875 13.69921875 C-67.20310425 13.0703571 -65.85154291 12.44144834 -64.5 11.8125 C-63.83484375 11.50376953 -63.1696875 11.19503906 -62.484375 10.87695312 C-59.42904182 9.4541264 -56.40752295 8.01229291 -53.4140625 6.4609375 C-50.90922068 5.26113932 -48.83588805 4.56833599 -46.125 4.0625 C-43.53309174 3.54669736 -41.29660431 3.0009394 -38.8125 2.0625 C-34.64089409 0.83555708 -30.56294973 0.63489992 -26.234375 0.37109375 C-17.36731886 -0.46517053 -9.20128876 -0.81330653 0 0 Z " fill="#E94336" transform="translate(300.625,100.875)"/>
<path d="M0 0 C1.88270582 -0.00067503 3.76541155 -0.00164671 5.64811707 -0.00289917 C9.58255854 -0.00436787 13.51697721 -0.00224902 17.45141602 0.00244141 C22.46074913 0.00812633 27.4700285 0.00486223 32.47935963 -0.00113106 C36.3650095 -0.00476919 40.25064695 -0.00358304 44.13629723 -0.00100327 C45.98162531 -0.00034235 47.82695456 -0.00113274 49.67228127 -0.00348282 C59.72537021 -0.01347538 69.65491195 0.1358344 79.66796875 1.1328125 C83.8103133 16.04525288 84.72686273 35.45602127 79.66796875 50.1328125 C79.33525308 52.68111203 79.17146843 55.20164261 79.01171875 57.765625 C78.64656732 60.28019054 77.84815251 61.903076 76.66796875 64.1328125 C76.37921875 65.3909375 76.09046875 66.6490625 75.79296875 67.9453125 C74.78854845 72.23402776 72.93977725 75.37012967 70.66796875 79.1328125 C70.20390625 80.3084375 70.20390625 80.3084375 69.73046875 81.5078125 C68.59078981 84.32348989 67.21592757 86.83313199 65.66796875 89.4453125 C64.89453125 90.76982422 64.89453125 90.76982422 64.10546875 92.12109375 C63.63109375 92.78496094 63.15671875 93.44882812 62.66796875 94.1328125 C62.00796875 94.1328125 61.34796875 94.1328125 60.66796875 94.1328125 C60.60609375 94.6690625 60.54421875 95.2053125 60.48046875 95.7578125 C59.26761611 99.30307407 57.22185949 101.3920517 54.66796875 104.1328125 C54.00796875 104.1328125 53.34796875 104.1328125 52.66796875 104.1328125 C52.66796875 105.1228125 52.66796875 106.1128125 52.66796875 107.1328125 C50.16796875 108.8203125 50.16796875 108.8203125 47.66796875 110.1328125 C42.84115289 107.5774394 39.50607714 105.06933392 35.66796875 101.1328125 C34.30749248 100.19343603 32.94408327 99.25715004 31.55078125 98.3671875 C28.95799095 96.66734987 26.43940956 94.87416311 23.91796875 93.0703125 C22.974375 92.39871094 22.03078125 91.72710937 21.05859375 91.03515625 C18.66796875 89.1328125 18.66796875 89.1328125 16.66796875 86.1328125 C14.6179292 84.94048637 14.6179292 84.94048637 12.66796875 84.1328125 C12.66796875 83.4728125 12.66796875 82.8128125 12.66796875 82.1328125 C11.34796875 81.8028125 10.02796875 81.4728125 8.66796875 81.1328125 C9.91484467 80.17041798 11.16561844 79.21307241 12.41796875 78.2578125 C13.1140625 77.72414063 13.81015625 77.19046875 14.52734375 76.640625 C16.66796875 75.1328125 16.66796875 75.1328125 18.80859375 74.1875 C21.1790602 72.84290769 21.58740832 71.59812474 22.66796875 69.1328125 C23.61639943 67.81313895 24.57552462 66.50111144 25.54296875 65.1953125 C28.14580588 61.37134998 29.56914343 57.75064904 30.86328125 53.31640625 C31.20633301 52.1555249 31.54938477 50.99464355 31.90283203 49.79858398 C32.15532715 48.91887939 32.40782227 48.0391748 32.66796875 47.1328125 C31.90597672 47.13503311 31.14398468 47.13725372 30.35890198 47.13954163 C23.19245163 47.15954407 16.02601474 47.17478638 8.8595438 47.18462467 C5.17482377 47.18985258 1.49012672 47.19694855 -2.19458008 47.20825195 C-5.74773956 47.21908412 -9.30087688 47.22509003 -12.85405159 47.22768974 C-14.21248791 47.2295434 -15.57092296 47.23316288 -16.9293499 47.23854256 C-18.82585348 47.24575725 -20.72237918 47.24622059 -22.61889648 47.24633789 C-24.24105324 47.24966881 -24.24105324 47.24966881 -25.89598083 47.25306702 C-28.33203125 47.1328125 -28.33203125 47.1328125 -29.33203125 46.1328125 C-29.42490385 44.72056204 -29.44949897 43.30372316 -29.44555664 41.88842773 C-29.44548111 40.98756943 -29.44540558 40.08671112 -29.44532776 39.15855408 C-29.44016647 38.17939529 -29.43500519 37.20023651 -29.4296875 36.19140625 C-29.42827255 35.19399918 -29.4268576 34.1965921 -29.42539978 33.16896057 C-29.41978239 29.96938126 -29.40722696 26.76987081 -29.39453125 23.5703125 C-29.38951849 21.40690205 -29.3849552 19.24349051 -29.38085938 17.08007812 C-29.36980732 11.76429925 -29.35305229 6.44856079 -29.33203125 1.1328125 C-19.56331497 -0.13395684 -9.83152078 -0.01247306 0 0 Z " fill="#4386F2" transform="translate(317.33203125,192.8671875)"/>
<path d="M0 0 C0.33 0.99 0.66 1.98 1 3 C3.39068734 4.10636395 3.39068734 4.10636395 6 5 C6.99 5.66 7.98 6.32 9 7 C9 7.66 9 8.32 9 9 C10.1446875 9.4021875 10.1446875 9.4021875 11.3125 9.8125 C14 11 14 11 15.375 12.3828125 C17.95286781 14.94828672 21.06664821 16.67335366 24.13671875 18.59765625 C24.75160156 19.06042969 25.36648437 19.52320313 26 20 C26 20.66 26 21.32 26 22 C26.556875 22.268125 27.11375 22.53625 27.6875 22.8125 C30.21225334 24.10899496 32.63714484 25.42476323 35 27 C35 27.66 35 28.32 35 29 C36.32 29.66 37.64 30.32 39 31 C38.69201674 32.48011371 38.378482 33.95907325 38.0625 35.4375 C37.88847656 36.26121094 37.71445313 37.08492187 37.53515625 37.93359375 C37 40 37 40 36 41 C35.07681275 52.65593843 34.99191097 64.90618215 39 76 C38.42121094 76.25910156 37.84242188 76.51820313 37.24609375 76.78515625 C34.83176762 78.09099178 33.07870527 79.58099416 31.0625 81.4375 C28.17285946 84.02802803 25.36320306 86.05288244 22 88 C20.57596584 89.19748327 19.15279606 90.39610546 17.7421875 91.609375 C15.70164977 93.23814503 13.56460959 94.64104853 11.375 96.0625 C8.83947929 97.71037611 6.83684738 99.16315262 4.6875 101.3125 C2.7690494 103.2309506 1.59789472 103.45899512 -1 104 C-14.08789822 79.17812407 -15.91210221 48.86306707 -9 22 C-8.11617195 19.58937761 -7.08730431 17.33201996 -6 15 C-5.47707168 13.48689723 -4.9731814 11.96688988 -4.5 10.4375 C-3.3118344 6.76613116 -1.83370073 3.40544422 0 0 Z " fill="#F9BB06" transform="translate(186,163)"/>
<path d="M0 0 C1.27617187 0.00322266 2.55234375 0.00644531 3.8671875 0.00976562 C5.1665625 0.01814453 6.4659375 0.02652344 7.8046875 0.03515625 C9.15624833 0.04018486 10.50781098 0.04474534 11.859375 0.04882812 C15.13286015 0.06051914 18.40624936 0.07690596 21.6796875 0.09765625 C21.6796875 0.75765625 21.6796875 1.41765625 21.6796875 2.09765625 C11.7796875 2.42765625 1.8796875 2.75765625 -8.3203125 3.09765625 C-8.9803125 4.41765625 -9.6403125 5.73765625 -10.3203125 7.09765625 C-11.3103125 7.09765625 -12.3003125 7.09765625 -13.3203125 7.09765625 C-13.34536865 8.14743652 -13.3704248 9.1972168 -13.39624023 10.27880859 C-13.49027517 14.16646949 -13.5905053 18.05395006 -13.69262695 21.94140625 C-13.73599067 23.62528267 -13.7776647 25.30920348 -13.81762695 26.99316406 C-13.87529484 29.41094349 -13.938999 31.8284992 -14.00390625 34.24609375 C-14.02061874 35.00135345 -14.03733124 35.75661316 -14.05455017 36.53475952 C-14.20644079 41.86991284 -14.20644079 41.86991284 -15.3203125 44.09765625 C3.8196875 44.09765625 22.9596875 44.09765625 42.6796875 44.09765625 C42.6796875 44.42765625 42.6796875 44.75765625 42.6796875 45.09765625 C22.8796875 45.42765625 3.0796875 45.75765625 -17.3203125 46.09765625 C-17.3203125 31.24765625 -17.3203125 16.39765625 -17.3203125 1.09765625 C-11.33183968 0.49880897 -5.92284511 -0.02667948 0 0 Z " fill="#5E94E3" transform="translate(305.3203125,192.90234375)"/>
<path d="M0 0 C0.33 0.99 0.66 1.98 1 3 C1.66 3.33 2.32 3.66 3 4 C2.34 4 1.68 4 1 4 C0.690625 4.969375 0.38125 5.93875 0.0625 6.9375 C-1 10 -1 10 -2 11 C-2.39148761 12.51165654 -2.73972457 14.03469632 -3.0625 15.5625 C-3.23910156 16.38878906 -3.41570312 17.21507812 -3.59765625 18.06640625 C-3.73042969 18.70449219 -3.86320313 19.34257812 -4 20 C-4.66 20 -5.32 20 -6 20 C-6 20.99 -6 21.98 -6 23 C-6.66 23 -7.32 23 -8 23 C-8.06058594 24.12019531 -8.12117187 25.24039063 -8.18359375 26.39453125 C-8.26801424 27.86719984 -8.35266149 29.33985544 -8.4375 30.8125 C-8.49647461 31.91948242 -8.49647461 31.91948242 -8.55664062 33.04882812 C-8.74381035 36.23071342 -8.98720793 38.96162378 -10 42 C-10.09185751 43.45741472 -10.13066657 44.9186012 -10.1328125 46.37890625 C-10.13474609 47.63670898 -10.13474609 47.63670898 -10.13671875 48.91992188 C-10.13285156 49.79197266 -10.12898437 50.66402344 -10.125 51.5625 C-10.12886719 52.43841797 -10.13273438 53.31433594 -10.13671875 54.21679688 C-10.13542969 55.05404297 -10.13414062 55.89128906 -10.1328125 56.75390625 C-10.13168457 57.52033447 -10.13055664 58.2867627 -10.12939453 59.07641602 C-10.11868694 61.08443868 -10.11868694 61.08443868 -9 63 C-8.92883618 65.37402501 -8.91590915 67.75000677 -8.9375 70.125 C-8.94652344 71.40632813 -8.95554688 72.68765625 -8.96484375 74.0078125 C-8.97644531 74.99523437 -8.98804688 75.98265625 -9 77 C-11.29575811 73.55636284 -11.6681213 70.68825019 -12.125 66.6875 C-12.2070166 65.96965332 -12.2890332 65.25180664 -12.37353516 64.51220703 C-13.55164826 53.46526242 -13.1193408 43.48199154 -11.1875 32.5625 C-11.02233887 31.62647949 -10.85717773 30.69045898 -10.68701172 29.72607422 C-9.67617781 24.42466403 -8.27829631 19.88642639 -6 15 C-5.47707168 13.48689723 -4.9731814 11.96688988 -4.5 10.4375 C-3.3118344 6.76613116 -1.83370073 3.40544422 0 0 Z " fill="#EFC753" transform="translate(186,163)"/>
<path d="M0 0 C0 0.66 0 1.32 0 2 C-0.81154541 2.01981934 -1.62309082 2.03963867 -2.45922852 2.06005859 C-6.16062749 2.15571837 -9.86149365 2.26523214 -13.5625 2.375 C-14.83931641 2.4059375 -16.11613281 2.436875 -17.43164062 2.46875 C-23.64232482 2.66232977 -29.12177102 2.96554912 -35 5 C-35.825 4.95875 -36.65 4.9175 -37.5 4.875 C-40.68769939 5.03438497 -42.50408944 6.51698459 -45.15234375 8.17578125 C-48.21241858 9.54084634 -50.85203237 8.77093085 -54 8 C-52 5 -52 5 -50.046875 4.33984375 C-48.90992188 4.14068359 -48.90992188 4.14068359 -47.75 3.9375 C-45.06715792 3.42729231 -42.75308704 2.90672177 -40.1875 1.9375 C-36.01589409 0.71055708 -31.93794973 0.50989992 -27.609375 0.24609375 C-18.28503727 -0.63329738 -9.68482992 -0.85007912 0 0 Z " fill="#DE635B" transform="translate(302,101)"/>
<path d="M0 0 C1.28261719 0.00322266 2.56523437 0.00644531 3.88671875 0.00976562 C5.20285156 0.01814453 6.51898438 0.02652344 7.875 0.03515625 C9.23567544 0.04018138 10.59635267 0.04474249 11.95703125 0.04882812 C15.26306725 0.06055166 18.56901001 0.07696198 21.875 0.09765625 C21.875 0.75765625 21.875 1.41765625 21.875 2.09765625 C11.975 2.42765625 2.075 2.75765625 -8.125 3.09765625 C-8.785 4.41765625 -9.445 5.73765625 -10.125 7.09765625 C-11.115 7.09765625 -12.105 7.09765625 -13.125 7.09765625 C-13.455 18.64765625 -13.785 30.19765625 -14.125 42.09765625 C-14.455 42.09765625 -14.785 42.09765625 -15.125 42.09765625 C-15.125 28.56765625 -15.125 15.03765625 -15.125 1.09765625 C-9.83541071 0.43645759 -5.24078887 -0.02339638 0 0 Z " fill="#6798E8" transform="translate(305.125,192.90234375)"/>
<path d="M0 0 C0.5625 1.9375 0.5625 1.9375 1 4 C0.67 4.33 0.34 4.66 0 5 C-0.92318725 16.65593843 -1.00808903 28.90618215 3 40 C1.35 40.66 -0.3 41.32 -2 42 C-2 40.35 -2 38.7 -2 37 C-2.66 37 -3.32 37 -4 37 C-3.83242187 36.12859375 -3.66484375 35.2571875 -3.4921875 34.359375 C-2.46029074 27.16868389 -3.04049421 19.75882748 -3.21484375 12.51953125 C-3.22902344 11.34261719 -3.24320313 10.16570312 -3.2578125 8.953125 C-3.2798877 7.88223633 -3.30196289 6.81134766 -3.32470703 5.70800781 C-3 3 -3 3 -1.48388672 1.12792969 C-0.9942041 0.75571289 -0.50452148 0.38349609 0 0 Z " fill="#EDC139" transform="translate(222,199)"/>
<path d="M0 0 C0.66 0.33 1.32 0.66 2 1 C2 3.31 2 5.62 2 8 C1.34 8 0.68 8 0 8 C0 8.66 0 9.32 0 10 C-0.969375 10.04125 -1.93875 10.0825 -2.9375 10.125 C-7.41456211 10.71768643 -10.42557737 13.07844473 -13.984375 15.72265625 C-16 17 -16 17 -19 17 C-17.402617 12.207851 -13.88873162 10.4847627 -9.5625 8.125 C-5.68429344 5.99879026 -3.00494298 3.22481686 0 0 Z " fill="#37A755" transform="translate(223,238)"/>
<path d="M0 0 C6.83117959 10.24676939 4.54725357 31.10632909 3 43 C2.39044849 45.01814058 1.74155985 47.02654277 1 49 C0.67 49 0.34 49 0 49 C0 32.83 0 16.66 0 0 Z " fill="#6494DC" transform="translate(396,194)"/>
<path d="M0 0 C4.26866909 0.47429657 6.10933148 3.03521178 9 6 C9.99 6.33 10.98 6.66 12 7 C12 7.66 12 8.32 12 9 C12.9590625 9.1546875 12.9590625 9.1546875 13.9375 9.3125 C18.95656227 10.43922826 23.85160162 12.05680071 28.5625 14.125 C32.01074434 15.3628313 35.35753928 15.62958027 39 16 C35.33134759 18.44576827 33.32799657 18.23607254 29 18 C28.34 17.67 27.68 17.34 27 17 C27 16.34 27 15.68 27 15 C24.03 15 21.06 15 18 15 C18 14.01 18 13.02 18 12 C16.88625 11.87625 15.7725 11.7525 14.625 11.625 C11 11 11 11 9 9 C6.42938689 8.35232207 6.42938689 8.35232207 4 8 C4 6.68 4 5.36 4 4 C3.34 4 2.68 4 2 4 C2 3.34 2 2.68 2 2 C1.34 2 0.68 2 0 2 C0 1.34 0 0.68 0 0 Z " fill="#6DB682" transform="translate(244,268)"/>
<path d="M0 0 C1.09248047 -0.00322266 2.18496094 -0.00644531 3.31054688 -0.00976562 C11.41145833 0.04513889 11.41145833 0.04513889 14.8125 2.3125 C9.48407871 3.04745466 4.44309664 3.31990842 -0.9375 3.1875 C-8.02494049 3.11029477 -14.38551257 4.41427095 -21.1875 6.3125 C-15.37068547 -0.47378362 -8.27180208 -0.12331249 0 0 Z " fill="#D85C51" transform="translate(287.1875,144.6875)"/>
<path d="M0 0 C1.125 3.75 1.125 3.75 0 6 C-0.66 6 -1.32 6 -2 6 C-2.33 7.65 -2.66 9.3 -3 11 C-3.99 11.33 -4.98 11.66 -6 12 C-6 12.66 -6 13.32 -6 14 C-6.639375 14.2475 -7.27875 14.495 -7.9375 14.75 C-10.18741541 15.81562433 -10.18741541 15.81562433 -10.75 18.125 C-10.87375 19.053125 -10.87375 19.053125 -11 20 C-14.96 20.495 -14.96 20.495 -19 21 C-18.278125 20.443125 -17.55625 19.88625 -16.8125 19.3125 C-13.92913577 17.0270024 -13.92913577 17.0270024 -11.3125 14.25 C-9 12 -9 12 -7 12 C-6.72414063 11.42765625 -6.44828125 10.8553125 -6.1640625 10.265625 C-5.00532152 8.01035733 -3.73124294 5.89143622 -2.375 3.75 C-1.92898438 3.04359375 -1.48296875 2.3371875 -1.0234375 1.609375 C-0.68570312 1.07828125 -0.34796875 0.5471875 0 0 Z " fill="#6897E3" transform="translate(345,254)"/>
<path d="M0 0 C5.05295549 1.55221509 9.51953934 3.13748347 14 6 C15.65369357 6.69822617 17.31727014 7.37498605 19 8 C19 8.66 19 9.32 19 10 C19.99 10 20.98 10 22 10 C22 10.66 22 11.32 22 12 C23.32 12.66 24.64 13.32 26 14 C25.01 14.33 24.02 14.66 23 15 C23 14.34 23 13.68 23 13 C21.68 13 20.36 13 19 13 C18.67 11.68 18.34 10.36 18 9 C17.071875 8.855625 16.14375 8.71125 15.1875 8.5625 C12 8 12 8 9 7 C9 6.34 9 5.68 9 5 C7.68 5 6.36 5 5 5 C5 4.34 5 3.68 5 3 C4.360625 2.87625 3.72125 2.7525 3.0625 2.625 C2.381875 2.41875 1.70125 2.2125 1 2 C0.67 1.34 0.34 0.68 0 0 Z " fill="#DC685C" transform="translate(329,108)"/>
<path d="M0 0 C0.33 0.99 0.66 1.98 1 3 C1.66 3.33 2.32 3.66 3 4 C2.34 4 1.68 4 1 4 C0.690625 4.969375 0.38125 5.93875 0.0625 6.9375 C-1 10 -1 10 -2 11 C-2.39148761 12.51165654 -2.73972457 14.03469632 -3.0625 15.5625 C-3.23910156 16.38878906 -3.41570312 17.21507812 -3.59765625 18.06640625 C-3.73042969 18.70449219 -3.86320313 19.34257812 -4 20 C-4.66 20 -5.32 20 -6 20 C-6.33 20.99 -6.66 21.98 -7 23 C-7.87101948 14.94306982 -3.75482478 6.94642583 0 0 Z " fill="#EEBC46" transform="translate(186,163)"/>
<path d="M0 0 C2.25245881 2.68841859 3.88213958 4.64641875 5 8 C5.99 8.33 6.98 8.66 8 9 C9.84499398 10.87617698 11.3683599 12.92737609 13 15 C12.67 15.66 12.34 16.32 12 17 C11.01 17 10.02 17 9 17 C6 12.77777778 6 12.77777778 6 10 C3.525 9.01 3.525 9.01 1 8 C0.67 5.36 0.34 2.72 0 0 Z " fill="#5DAD74" transform="translate(231,252)"/>
<path d="M0 0 C9.24 0 18.48 0 28 0 C28.33 0.66 28.66 1.32 29 2 C18.84706673 2.7903481 9.14898301 3.14727634 -1 2 C-0.67 1.34 -0.34 0.68 0 0 Z " fill="#80C297" transform="translate(275,329)"/>
<path d="M0 0 C1.32 0 2.64 0 4 0 C2.90299157 3.2910253 2.12380142 3.96023288 -0.5 6.0625 C-3.18106401 8.17721767 -3.18106401 8.17721767 -5 11 C-9.24822374 10.52797514 -11.19989709 8.03344482 -14 5 C-12.329375 5.2475 -12.329375 5.2475 -10.625 5.5 C-6.60422519 6.2063712 -6.60422519 6.2063712 -3 5 C-2.30062468 3.68352881 -1.63270867 2.34977849 -1 1 C-0.67 0.67 -0.34 0.34 0 0 Z " fill="#E17C73" transform="translate(340,153)"/>
<path d="M0 0 C0.33 0.66 0.66 1.32 1 2 C0.360625 2.28875 -0.27875 2.5775 -0.9375 2.875 C-3.15206079 3.82823451 -3.15206079 3.82823451 -4 6 C-8.2967033 9.03296703 -8.2967033 9.03296703 -11 10 C-14.4375 9.25 -14.4375 9.25 -17 8 C-14.82083126 5.82083126 -13.6440638 5.43367227 -10.75 4.5625 C-6.95860128 3.36199249 -3.51110434 1.89059465 0 0 Z " fill="#54AC6F" transform="translate(325,275)"/>
<path d="M0 0 C-1.65 0.33 -3.3 0.66 -5 1 C-5.33 1.99 -5.66 2.98 -6 4 C-9.63153201 6.42102134 -11.47802518 7.04209474 -15.875 6.6875 C-16.90625 6.460625 -17.9375 6.23375 -19 6 C-17 3 -17 3 -15.046875 2.33984375 C-13.90992188 2.14068359 -13.90992188 2.14068359 -12.75 1.9375 C-9.868784 1.39002256 -7.35434693 0.77695621 -4.5625 -0.1875 C-2 -1 -2 -1 0 0 Z " fill="#E17266" transform="translate(267,103)"/>
<path d="M0 0 C2.64 0 5.28 0 8 0 C8 0.66 8 1.32 8 2 C9.65 1.67 11.3 1.34 13 1 C13 1.66 13 2.32 13 3 C14.65 3.33 16.3 3.66 18 4 C18 4.66 18 5.32 18 6 C12.29179642 6.57082036 8.82324999 4.67524392 4 2 C2.66945989 1.3277759 1.33687928 0.65952711 0 0 Z " fill="#67B57E" transform="translate(242,321)"/>
<path d="M0 0 C0.45375 0.66 0.9075 1.32 1.375 2 C1.91125 2.66 2.4475 3.32 3 4 C3.66 4 4.32 4 5 4 C5.33 5.98 5.66 7.96 6 10 C6.99 10.33 7.98 10.66 9 11 C8.34 12.32 7.68 13.64 7 15 C5.63053378 13.26194659 4.27984046 11.50908767 2.9375 9.75 C2.18339844 8.77546875 1.42929688 7.8009375 0.65234375 6.796875 C-1 4 -1 4 -0.74609375 1.640625 C-0.49988281 1.09921875 -0.25367188 0.5578125 0 0 Z " fill="#6BBA88" transform="translate(191,273)"/>
<path d="M0 0 C0.66 0 1.32 0 2 0 C2 0.66 2 1.32 2 2 C5.86763446 3.87543354 5.86763446 3.87543354 10 3 C10 2.34 10 1.68 10 1 C10.66 1 11.32 1 12 1 C11.25 6.75 11.25 6.75 9 9 C8.01 8.34 7.02 7.68 6 7 C6 6.34 6 5.68 6 5 C5.38125 4.9175 4.7625 4.835 4.125 4.75 C2 4 2 4 0.75 1.9375 C0.5025 1.298125 0.255 0.65875 0 0 Z " fill="#DD5C36" transform="translate(215,185)"/>
<path d="M0 0 C0.66 0.33 1.32 0.66 2 1 C1.67 2.65 1.34 4.3 1 6 C0.01 6 -0.98 6 -2 6 C-2.268125 6.969375 -2.53625 7.93875 -2.8125 8.9375 C-3.204375 9.948125 -3.59625 10.95875 -4 12 C-4.99 12.33 -5.98 12.66 -7 13 C-7.33 13.66 -7.66 14.32 -8 15 C-8.66 15 -9.32 15 -10 15 C-9 13 -8 11 -7 9 C-6.34 9 -5.68 9 -5 9 C-4.8453125 8.1028125 -4.8453125 8.1028125 -4.6875 7.1875 C-3.90298309 4.69130983 -2.90110692 3.74268135 -1 2 C-0.67 1.34 -0.34 0.68 0 0 Z " fill="#E27B72" transform="translate(203,137)"/>
<path d="M0 0 C1.65 0 3.3 0 5 0 C1.84442256 4.67025461 -0.8641579 6.12344231 -6 8 C-6.33 6.35 -6.66 4.7 -7 3 C-4.03 3.495 -4.03 3.495 -1 4 C-0.67 2.68 -0.34 1.36 0 0 Z " fill="#E4C024" transform="translate(191,259)"/>
<path d="M0 0 C1.32 0.33 2.64 0.66 4 1 C3.04855402 2.81612488 2.08863067 4.62781081 1.125 6.4375 C0.59132812 7.44683594 0.05765625 8.45617187 -0.4921875 9.49609375 C-2 12 -2 12 -4 13 C-4 11.35 -4 9.7 -4 8 C-3.34 8 -2.68 8 -2 8 C-2 6.35 -2 4.7 -2 3 C-1.34 3 -0.68 3 0 3 C0 2.01 0 1.02 0 0 Z " fill="#DC6056" transform="translate(231,173)"/>
<path d="M0 0 C1.46015291 0.28241641 2.91809793 0.57626614 4.375 0.875 C5.18710937 1.03742188 5.99921875 1.19984375 6.8359375 1.3671875 C9 2 9 2 11 4 C9.68 4 8.36 4 7 4 C7.66 4.66 8.32 5.32 9 6 C6.69 6.33 4.38 6.66 2 7 C1.34 4.69 0.68 2.38 0 0 Z " fill="#E46758" transform="translate(311,102)"/>
<path d="M0 0 C0.82341154 2.30555232 1.24150171 3.47984248 0.1875 5.75 C-0.204375 6.4925 -0.59625 7.235 -1 8 C-1.33472565 9.327928 -1.64514519 10.66210513 -1.9375 12 C-2.70188525 15.27768397 -3.68450824 17.47400899 -6 20 C-5.855625 19.154375 -5.71125 18.30875 -5.5625 17.4375 C-4.9941203 13.96406851 -4.48797607 10.48554338 -4 7 C-3.34 7 -2.68 7 -2 7 C-2 5.35 -2 3.7 -2 2 C-1.34 2 -0.68 2 0 2 C0 1.34 0 0.68 0 0 Z " fill="#7AA4E3" transform="translate(395,249)"/>
<path d="M0 0 C1.32 0.66 2.64 1.32 4 2 C4 2.66 4 3.32 4 4 C3.34 4 2.68 4 2 4 C2 4.66 2 5.32 2 6 C0.6875 7.625 0.6875 7.625 -1 9 C-1.99 9 -2.98 9 -4 9 C-4.33 7.68 -4.66 6.36 -5 5 C-3.68 4.67 -2.36 4.34 -1 4 C-0.67 2.68 -0.34 1.36 0 0 Z " fill="#55AB7B" transform="translate(361,300)"/>
<path d="M0 0 C1.65 0.33 3.3 0.66 5 1 C5 1.99 5 2.98 5 4 C3.68 4.33 2.36 4.66 1 5 C1 5.66 1 6.32 1 7 C-1.31 7.33 -3.62 7.66 -6 8 C-6.33 7.01 -6.66 6.02 -7 5 C-4.69 5.33 -2.38 5.66 0 6 C0 4.68 0 3.36 0 2 C0 1.34 0 0.68 0 0 Z " fill="#56AD71" transform="translate(336,316)"/>
<path d="M0 0 C1.32 0.33 2.64 0.66 4 1 C4 1.66 4 2.32 4 3 C5.32 3.66 6.64 4.32 8 5 C7.67 6.65 7.34 8.3 7 10 C6.01 10.33 5.02 10.66 4 11 C3.87882813 10.43410156 3.75765625 9.86820313 3.6328125 9.28515625 C3.38144531 8.18494141 3.38144531 8.18494141 3.125 7.0625 C2.96257812 6.33160156 2.80015625 5.60070312 2.6328125 4.84765625 C2.17038477 2.79299706 2.17038477 2.79299706 0 2 C0 1.34 0 0.68 0 0 Z " fill="#F7B32F" transform="translate(217,189)"/>
<path d="M0 0 C4.87549176 1.30108431 7.7234779 3.17085748 11.375 6.625 C12.24898438 7.44226563 13.12296875 8.25953125 14.0234375 9.1015625 C15.00183594 10.04128906 15.00183594 10.04128906 16 11 C12.67852297 11 12.02032019 10.57859297 9.4375 8.6875 C8.83808594 8.25824219 8.23867188 7.82898438 7.62109375 7.38671875 C6 6 6 6 4 3 C1.94996045 1.80767387 1.94996045 1.80767387 0 1 C0 0.67 0 0.34 0 0 Z " fill="#3B91BA" transform="translate(330,276)"/>
<path d="M0 0 C-1.07543783 0.98783194 -2.16073217 1.96493943 -3.25 2.9375 C-4.15492188 3.75541016 -4.15492188 3.75541016 -5.078125 4.58984375 C-7.08467305 6.06212799 -8.57002449 6.57529189 -11 7 C-11 6.34 -11 5.68 -11 5 C-10.01 4.67 -9.02 4.34 -8 4 C-7.67 3.34 -7.34 2.68 -7 2 C-7.66 2 -8.32 2 -9 2 C-9 1.34 -9 0.68 -9 0 C-2.25 -1.125 -2.25 -1.125 0 0 Z " fill="#C6BC1C" transform="translate(220,242)"/>
<path d="M0 0 C0 3.33333333 0 6.66666667 0 10 C-1.65 10.33 -3.3 10.66 -5 11 C-4.46884894 6.48521602 -2.63379708 3.65333143 0 0 Z " fill="#E06457" transform="translate(192,153)"/>
<path d="M0 0 C-3.3523056 2.96230965 -6.40986554 3.77607176 -10.75 4.6875 C-12.50570313 5.06455078 -12.50570313 5.06455078 -14.296875 5.44921875 C-15.18890625 5.63097656 -16.0809375 5.81273437 -17 6 C-11.84720109 0.60542753 -7.20373141 -0.3726068 0 0 Z " fill="#DF6F66" transform="translate(283,145)"/>
<path d="M0 0 C0.33 0.66 0.66 1.32 1 2 C0.67 2.66 0.34 3.32 0 4 C-1.98 4 -3.96 4 -6 4 C-6 4.66 -6 5.32 -6 6 C-8.97 6.66 -11.94 7.32 -15 8 C-12.4135416 5.4135416 -9.7061452 4.37728117 -6.375 2.875 C-4.59222656 2.06675781 -4.59222656 2.06675781 -2.7734375 1.2421875 C-1.40058594 0.62730469 -1.40058594 0.62730469 0 0 Z " fill="#E17A6E" transform="translate(244,109)"/>
<path d="M0 0 C1.32 0 2.64 0 4 0 C4.33 0.66 4.66 1.32 5 2 C5.804375 2.12375 6.60875 2.2475 7.4375 2.375 C10 3 10 3 11.3125 5.0625 C11.6528125 6.0215625 11.6528125 6.0215625 12 7 C11.01 7.495 11.01 7.495 10 8 C8.33055479 6.85821872 6.6645052 5.71147095 5 4.5625 C4.071875 3.92441406 3.14375 3.28632813 2.1875 2.62890625 C1.465625 2.09136719 0.74375 1.55382812 0 1 C0 0.67 0 0.34 0 0 Z " fill="#6AB383" transform="translate(219,307)"/>
<path d="M0 0 C0.66 0.33 1.32 0.66 2 1 C1.2884375 1.61875 1.2884375 1.61875 0.5625 2.25 C-1.16266518 4.182185 -1.56584875 5.48192275 -2 8 C-4.64 8.33 -7.28 8.66 -10 9 C-9.278125 8.443125 -8.55625 7.88625 -7.8125 7.3125 C-5.02542701 5.02090666 -2.51358472 2.58540143 0 0 Z " fill="#7EA8DE" transform="translate(336,266)"/>
<path d="M0 0 C-1.81309003 3.77727089 -3.9073259 7.37269822 -6 11 C-7.21346851 7.35959446 -7.21346851 5.64040554 -6 2 C-3.85412616 0.684787 -2.52986895 0 0 0 Z " fill="#6494E2" transform="translate(387,274)"/>
<path d="M0 0 C0.66 0.33 1.32 0.66 2 1 C1.67 3.64 1.34 6.28 1 9 C1.66 9.33 2.32 9.66 3 10 C2.34 10.66 1.68 11.32 1 12 C-1.29633824 8.55549263 -1.54016485 6.06187717 -2 2 C-1.34 2 -0.68 2 0 2 C0 1.34 0 0.68 0 0 Z " fill="#F4C034" transform="translate(182,250)"/>
<path d="M0 0 C4.24846075 0.47205119 6.26819288 2.88877522 9 6 C9 6.66 9 7.32 9 8 C7.35 8 5.7 8 4 8 C4 6.68 4 5.36 4 4 C3.34 4 2.68 4 2 4 C2 3.34 2 2.68 2 2 C1.34 2 0.68 2 0 2 C0 1.34 0 0.68 0 0 Z " fill="#61AE78" transform="translate(244,268)"/>
<path d="M0 0 C1.55693206 2.33539809 2.90200646 4.57968756 4.1875 7.0625 C4.55230469 7.75472656 4.91710937 8.44695312 5.29296875 9.16015625 C5.52628906 9.76730469 5.75960937 10.37445313 6 11 C5.67 11.66 5.34 12.32 5 13 C4.34 13 3.68 13 3 13 C2.67 11.35 2.34 9.7 2 8 C1.34 8 0.68 8 0 8 C0 5.36 0 2.72 0 0 Z " fill="#79BE90" transform="translate(225,239)"/>
<path d="M0 0 C3.375 -0.125 3.375 -0.125 7 0 C7.66 0.66 8.32 1.32 9 2 C10.31747324 2.69748583 11.64914193 3.36959957 13 4 C12.67 4.99 12.34 5.98 12 7 C11.46890625 6.66226563 10.9378125 6.32453125 10.390625 5.9765625 C9.68421875 5.53054687 8.9778125 5.08453125 8.25 4.625 C7.55390625 4.18414062 6.8578125 3.74328125 6.140625 3.2890625 C4.13482617 2.08119094 2.10821704 1.01612263 0 0 Z " fill="#E4877F" transform="translate(312,151)"/>
<path d="M0 0 C0.33 0 0.66 0 1 0 C1.125 6.75 1.125 6.75 0 9 C-0.66 9 -1.32 9 -2 9 C-2.33 9.99 -2.66 10.98 -3 12 C-3.34833144 7.12335991 -2.41685712 4.22949995 0 0 Z " fill="#F3BE2B" transform="translate(182,174)"/>
<path d="M0 0 C0.33 1.32 0.66 2.64 1 4 C-0.98 5.32 -2.96 6.64 -5 8 C-5.66 7.67 -6.32 7.34 -7 7 C-6.34 5.68 -5.68 4.36 -5 3 C-4.01 3 -3.02 3 -2 3 C-2 2.34 -2 1.68 -2 1 C-1.34 0.67 -0.68 0.34 0 0 Z " fill="#E07268" transform="translate(217,125)"/>
<path d="M0 0 C0.66 0.33 1.32 0.66 2 1 C2 1.99 2 2.98 2 4 C1.34 4 0.68 4 0 4 C-0.33 4.99 -0.66 5.98 -1 7 C-2.65 7 -4.3 7 -6 7 C-4.02 4.69 -2.04 2.38 0 0 Z " fill="#4DA043" transform="translate(223,238)"/>
<path d="M0 0 C-0.33 0.99 -0.66 1.98 -1 3 C-5.29 2.67 -9.58 2.34 -14 2 C-14 1.67 -14 1.34 -14 1 C-12.22932584 0.83165067 -10.45845388 0.66538091 -8.6875 0.5 C-7.70136719 0.4071875 -6.71523438 0.314375 -5.69921875 0.21875 C-3 0 -3 0 0 0 Z " fill="#70BB8E" transform="translate(307,283)"/>
<path d="M0 0 C0.66 0.33 1.32 0.66 2 1 C1.50769231 7.52307692 1.50769231 7.52307692 -1.0625 9.9375 C-1.701875 10.288125 -2.34125 10.63875 -3 11 C-2.44894091 7.0507432 -1.61064629 3.65079826 0 0 Z " fill="#69A0E5" transform="translate(350,241)"/>
<path d="M0 0 C0.66 0 1.32 0 2 0 C2.33 3.96 2.66 7.92 3 12 C0.71046511 9.71046511 0.47586642 8.54484795 -0.1875 5.4375 C-0.36667969 4.63183594 -0.54585937 3.82617188 -0.73046875 2.99609375 C-0.81941406 2.33738281 -0.90835938 1.67867187 -1 1 C-0.67 0.67 -0.34 0.34 0 0 Z " fill="#F0C855" transform="translate(177,240)"/>
<path d="M0 0 C0.66 0.33 1.32 0.66 2 1 C1.34 2.32 0.68 3.64 0 5 C-0.66 4.67 -1.32 4.34 -2 4 C-2.4125 4.515625 -2.825 5.03125 -3.25 5.5625 C-3.8275 6.036875 -4.405 6.51125 -5 7 C-7.1875 6.6875 -7.1875 6.6875 -9 6 C-8.34 6 -7.68 6 -7 6 C-7 5.34 -7 4.68 -7 4 C-1.7265625 0.77734375 -1.7265625 0.77734375 0 0 Z " fill="#E27468" transform="translate(227,118)"/>
<path d="M0 0 C0.99 0.33 1.98 0.66 3 1 C3 1.66 3 2.32 3 3 C3.99 3 4.98 3 6 3 C6 3.66 6 4.32 6 5 C7.32 5.66 8.64 6.32 10 7 C9.01 7.33 8.02 7.66 7 8 C7 7.34 7 6.68 7 6 C5.68 6 4.36 6 3 6 C2.896875 5.360625 2.79375 4.72125 2.6875 4.0625 C2.460625 3.381875 2.23375 2.70125 2 2 C1.01 1.67 0.02 1.34 -1 1 C-0.67 0.67 -0.34 0.34 0 0 Z " fill="#DF7268" transform="translate(345,115)"/>
<path d="M0 0 C1.43655854 -0.08131463 2.8744483 -0.13933559 4.3125 -0.1875 C5.51326172 -0.23970703 5.51326172 -0.23970703 6.73828125 -0.29296875 C9.47851584 0.06198392 10.29171079 0.89366282 12 3 C10.56163249 2.88541307 9.12429034 2.75790884 7.6875 2.625 C6.88699219 2.55539062 6.08648437 2.48578125 5.26171875 2.4140625 C3 2 3 2 0 0 Z " fill="#6AB67F" transform="translate(261,327)"/>
<path d="M0 0 C2.31 0 4.62 0 7 0 C7.12375 0.639375 7.2475 1.27875 7.375 1.9375 C7.684375 2.9584375 7.684375 2.9584375 8 4 C8.66 4.33 9.32 4.66 10 5 C6.33118845 4.29445932 3.29549466 2.72264494 0 1 C0 0.67 0 0.34 0 0 Z " fill="#74B98C" transform="translate(232,316)"/>
<path d="M0 0 C1.96177393 2.94266089 2.36742347 4.12432473 2.75 7.5 C2.84796875 8.2734375 2.9459375 9.046875 3.046875 9.84375 C3 12 3 12 1 15 C0.83105557 13.25021843 0.66493691 11.50016388 0.5 9.75 C0.4071875 8.77546875 0.314375 7.8009375 0.21875 6.796875 C0.04199832 4.53697847 0 2.26679807 0 0 Z " fill="#81ABE6" transform="translate(396,194)"/>
<path d="M0 0 C2.31 0 4.62 0 7 0 C4 2 4 2 1.375 3 C-1.15139938 3.76047262 -1.15139938 3.76047262 -2 6 C-2.33 4.68 -2.66 3.36 -3 2 C-2.34 2 -1.68 2 -1 2 C-0.67 1.34 -0.34 0.68 0 0 Z " fill="#E2645F" transform="translate(252,154)"/>
<path d="M0 0 C0.99 0 1.98 0 3 0 C3 0.66 3 1.32 3 2 C2.34 2 1.68 2 1 2 C0.896875 2.61875 0.79375 3.2375 0.6875 3.875 C0 6 0 6 -3 8 C-3.66 6.35 -4.32 4.7 -5 3 C-2.525 3.495 -2.525 3.495 0 4 C0 2.68 0 1.36 0 0 Z " fill="#6D9DE3" transform="translate(377,285)"/>
<path d="M0 0 C0.66 0.33 1.32 0.66 2 1 C0.8125 3.4375 0.8125 3.4375 -1 6 C-3.6875 6.8125 -3.6875 6.8125 -6 7 C-4.77065985 3.31197956 -3.06140622 2.27643027 0 0 Z " fill="#58A63B" transform="translate(210,248)"/>
<path d="M0 0 C0 3 0 3 -2 5.1875 C-2.66 5.785625 -3.32 6.38375 -4 7 C-4.99 6.67 -5.98 6.34 -7 6 C-4.69 4.02 -2.38 2.04 0 0 Z " fill="#3DA448" transform="translate(216,245)"/>
<path d="M0 0 C1.98 0.99 1.98 0.99 4 2 C4 2.66 4 3.32 4 4 C6.475 4.99 6.475 4.99 9 6 C9 6.66 9 7.32 9 8 C5.56247993 6.4722133 2.81046312 4.49818944 0 2 C0 1.34 0 0.68 0 0 Z " fill="#FCA323" transform="translate(191,168)"/>
<path d="M0 0 C1.32 0 2.64 0 4 0 C2.75453595 3.73639216 1.36595047 4.18756513 -2 6 C-2 3 -2 3 0 0 Z " fill="#DD6054" transform="translate(340,153)"/>
<path d="M0 0 C1.32 0 2.64 0 4 0 C4.33 1.98 4.66 3.96 5 6 C4.01 5.67 3.02 5.34 2 5 C2 4.34 2 3.68 2 3 C1.34 3 0.68 3 0 3 C0 2.01 0 1.02 0 0 Z " fill="#558BE6" transform="translate(392,194)"/>
<path d="M0 0 C2 2 2 2 2 5 C2.99 5.33 3.98 5.66 5 6 C4.34 7.32 3.68 8.64 3 10 C0 3.375 0 3.375 0 0 Z " fill="#5AAF75" transform="translate(195,278)"/>
<path d="M0 0 C0.33 0 0.66 0 1 0 C1.33 2.97 1.66 5.94 2 9 C1.01 9.66 0.02 10.32 -1 11 C-0.67 7.37 -0.34 3.74 0 0 Z " fill="#F6B916" transform="translate(178,186)"/>
<path d="M0 0 C0.33 0.66 0.66 1.32 1 2 C0.360625 2.28875 -0.27875 2.5775 -0.9375 2.875 C-3.15206079 3.82823451 -3.15206079 3.82823451 -4 6 C-5.32 5.34 -6.64 4.68 -8 4 C-5.36 2.68 -2.72 1.36 0 0 Z " fill="#7DC299" transform="translate(325,275)"/>
<path d="M0 0 C3 1 3 1 4.1875 3.0625 C4.455625 3.701875 4.72375 4.34125 5 5 C3.68 5.33 2.36 5.66 1 6 C0.67 4.02 0.34 2.04 0 0 Z " fill="#65B683" transform="translate(239,263)"/>
</svg>
